<svg width="11" height="9" viewBox="0 0 11 9" fill="none" xmlns="http://www.w3.org/2000/svg">
<path d="M9.63281 5.03076C9.90895 5.03076 10.1328 4.8069 10.1328 4.53076C10.1328 4.25462 9.90895 4.03076 9.63281 4.03076L9.63281 5.03076ZM0.537071 4.17721C0.341809 4.37247 0.341809 4.68905 0.537071 4.88431L3.71905 8.0663C3.91431 8.26156 4.2309 8.26156 4.42616 8.0663C4.62142 7.87103 4.62142 7.55445 4.42616 7.35919L1.59773 4.53076L4.42616 1.70233C4.62142 1.50707 4.62142 1.19049 4.42616 0.995227C4.2309 0.799965 3.91431 0.799965 3.71905 0.995227L0.537071 4.17721ZM9.63281 4.03076L0.890625 4.03076L0.890625 5.03076L9.63281 5.03076L9.63281 4.03076Z" fill="#424B54"/>
</svg>
