<svg width="52" height="16" viewBox="0 0 52 16" fill="none" xmlns="http://www.w3.org/2000/svg">
<path d="M6.85868 2.39394C7.54234 2.39394 8.226 2.46916 8.7747 2.5466C9.30569 2.64174 10.1 2.71696 10.2128 2.71696C10.5734 2.71696 10.7261 2.65944 10.8589 2.60413C10.9717 2.5466 11.0668 2.49129 11.277 2.49129C12.1886 2.49129 12.2638 3.25017 12.4164 4.16171C12.5691 5.05334 12.662 6.09764 12.662 6.47598C12.662 7.13972 12.3014 7.38752 11.6553 7.38752C10.9164 7.38752 9.42074 4.67501 7.59765 4.67501C5.83209 4.67501 5.43384 7.42734 5.43384 8.67961C5.43384 10.8987 6.44052 13.5183 8.24149 13.5183C10.4053 13.5183 10.5181 11.4696 11.4673 11.4696C12.2461 11.4696 12.2461 12.1908 12.2461 12.7594C12.2461 13.7086 12.2461 14.8856 11.2018 15.3215C10.1398 15.7773 8.40078 15.6821 6.98922 15.6821C2.09741 15.6821 0.5 12.5891 0.5 9.28804C0.5 5.85427 2.26556 2.40058 6.85647 2.40058L6.85868 2.39394Z" fill="#292929"/>
<path d="M13.4754 3.52892C13.4754 3.03553 13.19 2.77004 12.8868 2.61737C12.6014 2.48462 12.3359 2.37179 12.3359 1.8784C12.3359 0.891636 16.2454 0 16.8715 0C17.3848 0 17.668 0.323027 17.668 0.834111C17.668 2.18151 17.5552 5.52458 17.5729 6.85207C18.4468 6.1131 19.5663 5.69494 20.6283 5.69494C21.9005 5.69494 24.2347 6.05557 24.2347 8.82561C24.2347 10.4761 24.2922 11.2925 24.2922 12.1089C24.2922 12.6598 24.2922 13.7417 24.8431 13.9696C25.1661 14.1024 25.3166 14.1776 25.3166 14.7285C25.3166 15.0692 25.1838 15.6777 24.8033 15.6777H19.9071C19.4137 15.6777 19.3385 15.0715 19.3385 14.6909C19.3385 14.0449 19.6991 14.2727 19.8119 13.9696C20.0199 13.4386 20.0398 13.1532 20.0398 11.3501C20.0398 10.0779 20.0398 8.18177 18.3893 8.18177C17.991 8.18177 17.6304 8.38975 17.6304 8.82782C17.6304 9.96725 17.668 11.2748 17.668 12.2063C17.668 12.8523 17.6879 13.7816 18.1238 13.9718C18.5043 14.1422 18.5973 14.275 18.5973 14.7683C18.5973 15.3746 18.5021 15.6799 17.8583 15.6799H13.0771C12.451 15.6799 12.3935 15.452 12.3935 14.8834C12.3935 14.2196 12.6014 14.1621 13.0196 13.9718C13.4754 13.7639 13.4754 12.1687 13.4754 9.36102V3.53113V3.52892Z" fill="#292929"/>
<path d="M30.3456 5.69482C33.4585 5.69482 35.6578 7.32764 35.6578 10.5911C35.6578 13.9297 33.2484 15.8103 30.0779 15.8103C27.0047 15.8103 24.8984 14.1974 24.8984 11.0291C24.8984 7.70818 27.0622 5.69703 30.3434 5.69703L30.3456 5.69482ZM29.2637 9.88748C29.2637 13.1708 29.8898 13.9098 30.496 13.9098C31.0093 13.9098 31.2925 13.3036 31.2925 11.6132C31.2925 8.32989 30.6664 7.59092 30.0403 7.59092C29.5469 7.59092 29.2615 8.19714 29.2615 9.88748H29.2637Z" fill="#292929"/>
<path d="M36.3333 8.24789C36.3333 7.90717 36.0479 7.79212 35.7647 7.64167C35.4992 7.50892 35.2138 7.41378 35.2138 6.88279C35.2138 6.25665 36.1054 6.00886 37.1873 5.68805C38.3068 5.34732 39.8998 4.92916 40.1675 4.92916C40.3954 4.92916 40.5282 4.98669 40.5282 5.40264V13.0954C40.5282 13.4362 40.8689 13.684 41.287 13.9694C41.5525 14.1597 41.6477 14.215 41.6477 14.6331C41.6477 15.392 41.287 15.6774 40.641 15.6774H35.7448C35.3465 15.6774 35.1563 15.2969 35.1563 14.9185C35.1563 14.5203 35.1562 14.2172 35.5744 13.9694C36.1629 13.6287 36.3333 13.4185 36.3333 12.1861V8.2501V8.24789ZM38.9153 0.959961C39.7383 0.959961 40.5171 1.34936 40.5171 2.2587C40.5171 3.75212 38.5037 4.72783 37.2028 4.72783C36.3355 4.72783 35.924 4.40259 35.924 3.49326C35.924 2.19453 37.7006 0.959961 38.913 0.959961H38.9153Z" fill="#292929"/>
<path d="M45.5285 9.81257C45.8715 9.30813 46.0551 8.92315 46.0551 8.78156C46.0551 8.65987 45.1413 8.50721 44.3515 8.60014C43.347 8.7174 41.7585 9.22627 41.4354 9.22627C41.0505 9.22627 41.0704 8.72182 41.0704 8.45853C41.0704 8.05365 41.2717 7.24609 41.6567 6.51819C42.0217 5.8301 42.243 5.18406 42.9311 5.18406C43.8824 5.18406 48.9269 5.18406 49.8761 5.18406C50.3606 5.18406 50.6637 5.30574 50.6637 5.85223C50.6637 5.97391 50.4402 6.3788 50.0774 6.92307L47.3671 10.9874C47.0839 11.4321 46.9224 11.7751 46.9224 11.9166C46.9224 12.0782 47.1038 12.1401 47.2875 12.1401C49.1482 12.1401 50.4425 10.9078 50.7456 10.9078C51.1084 10.9078 51.25 11.3126 51.25 11.6357C51.25 11.8171 51.1084 12.7884 50.7655 13.7995C50.2389 15.3571 50.1792 15.6801 49.188 15.6801H42.8802C42.4952 15.6801 42.0925 15.6204 42.0925 15.1535C42.0925 15.0119 42.254 14.6269 42.5771 14.1623L45.5285 9.81479V9.81257Z" fill="#292929"/>
</svg>
